<svg width="62" height="62" viewBox="0 0 62 62" fill="none" xmlns="http://www.w3.org/2000/svg">
<path d="M19.7436 22.0391C18.5536 20.8491 18.5536 18.8959 19.7436 17.7058L32.7435 4.71242C33.9335 3.52238 35.8868 3.52238 37.0768 4.71242C38.2668 5.90246 38.2668 7.85567 37.0768 9.04571L24.0834 22.0391C22.8933 23.2292 20.9401 23.2292 19.7501 22.0391H19.7436Z" stroke="#F26857" stroke-width="2.71" stroke-linecap="round" stroke-linejoin="round"/>
<path d="M31.8899 2.42075L32.1414 2.67228C32.8685 3.39943 32.8685 4.57934 32.1414 5.30649L20.3377 17.1102C19.6106 17.8373 18.4307 17.8373 17.7035 17.1102L17.452 16.8586C16.7248 16.1315 16.7248 14.9516 17.452 14.2244L29.2556 2.42075C29.9828 1.69359 31.1627 1.69359 31.8899 2.42075Z" stroke="#F26857" stroke-width="2.71" stroke-linecap="round" stroke-linejoin="round"/>
<path d="M39.9614 42.2569C41.1514 43.4469 43.1046 43.4469 44.2947 42.2569L57.2881 29.2635C58.4781 28.0734 58.4781 26.1202 57.2881 24.9302C56.0981 23.7401 54.1448 23.7401 52.9548 24.9302L39.9614 37.9236C38.7713 39.1136 38.7713 41.0668 39.9614 42.2569V42.2569Z" stroke="#F26857" stroke-width="2.71" stroke-linecap="round" stroke-linejoin="round"/>
<path d="M45.1414 44.548L44.8899 44.2964C44.1627 43.5693 44.1627 42.3894 44.8899 41.6622L56.6935 29.8586C57.4207 29.1314 58.6006 29.1314 59.3277 29.8586L59.5793 30.1101C60.3064 30.8372 60.3064 32.0171 59.5793 32.7443L47.7756 44.548C47.0485 45.2751 45.8685 45.2751 45.1414 44.548V44.548Z" stroke="#F26857" stroke-width="2.71" stroke-linecap="round" stroke-linejoin="round"/>
<path d="M52.2341 25.6435L36.3511 9.76045L24.7989 21.3126L40.682 37.1956L52.2341 25.6435Z" stroke="#F26857" stroke-width="2.71" stroke-linecap="round" stroke-linejoin="round"/>
<path d="M33.8264 30.3468L31.6587 28.1791L24.4375 35.4003L26.6052 37.568L33.8264 30.3468Z" stroke="#F26857" stroke-width="2.71" stroke-linecap="round" stroke-linejoin="round"/>
<path d="M26.057 39.9092L22.0874 35.9396L1.87346 56.1535L5.84307 60.1231L26.057 39.9092Z" stroke="#F26857" stroke-width="2.71" stroke-linecap="round" stroke-linejoin="round"/>
<path d="M22.6342 33.5903L28.4097 39.3658C28.8043 39.7604 28.8043 40.4136 28.4097 40.8081C28.0152 41.2026 27.362 41.2026 26.9675 40.8081L21.1919 35.0325C20.7974 34.638 20.7974 33.9848 21.1919 33.5903C21.5864 33.1957 22.2396 33.1957 22.6342 33.5903Z" stroke="#F26857" stroke-width="2.71" stroke-linecap="round" stroke-linejoin="round"/>
</svg>
