<svg width="222" height="63" viewBox="0 0 222 63" fill="none" xmlns="http://www.w3.org/2000/svg">
<path d="M82.9948 44.1448H86.6948V40.4448V36.7448V33.1086H82.9948V29.4086H86.6948V25.7724V22.0724V18.3724H90.3948H94.031V14.7362V11.0362H97.731H101.431V7.33621H105.067H108.767V3.7H112.467V7.33621V11.0362V14.7362V18.3724V22.0724H108.767H105.067V25.7724V29.4086H101.431H97.731V33.1086V36.7448H94.031V33.1086V29.4086V25.7724H97.731H101.431V22.0724V18.3724H105.067H108.767V14.7362V11.0362H105.067V14.7362H101.431H97.731V18.3724V22.0724H94.031H90.3948V25.7724V29.4086V33.1086V36.7448V40.4448H94.031H97.731H101.431V36.7448V33.1086H105.067H108.767H112.467H116.103H119.803H123.503V29.4086V25.7724H127.203V29.4086V33.1086V36.7448H123.503H119.803V40.4448V44.1448H116.103H112.467V47.781V51.481H116.103V47.781H119.803H123.503V44.1448V40.4448H127.203H130.84V36.7448V33.1086V29.4086V25.7724V22.0724H127.203H123.503H119.803V25.7724V29.4086H116.103H112.467H108.767V25.7724H112.467H116.103V22.0724V18.3724V14.7362V11.0362V7.33621H119.803V11.0362V14.7362V18.3724H123.503V14.7362V11.0362H127.203V14.7362V18.3724H130.84V14.7362H134.54V11.0362H130.84V7.33621H127.203H123.503V3.7H119.803H116.103V0H112.467H108.767H105.067V3.7H101.431H97.731V7.33621H94.031H90.3948V11.0362V14.7362H86.6948H82.9948V18.3724V22.0724V25.7724H79.3586V29.4086V33.1086V36.7448H82.9948V40.4448V44.1448Z" fill="#333333"/>
<path d="M138.176 25.7724V22.0724V18.3724H134.54V22.0724V25.7724V29.4086H138.176V33.1086H134.54V36.7448V40.4448V44.1448H130.84H127.203V47.781V51.481H123.503H119.803V55.181H116.103H112.467V58.8172H108.767V55.181V51.481V47.781V44.1448V40.4448H112.467H116.103V36.7448H112.467H108.767H105.067V40.4448V44.1448V47.781V51.481V55.181H101.431V51.481H97.731H94.031V47.781H97.731H101.431V44.1448H97.731H94.031H90.3948V47.781H86.6948V51.481H90.3948V55.181H94.031H97.731V58.8172H101.431H105.067V62.5172H108.767H112.467H116.103V58.8172H119.803H123.503V55.181H127.203H130.84V51.481V47.781H134.54H138.176V44.1448V40.4448V36.7448H141.876V33.1086V29.4086V25.7724H138.176Z" fill="#333333"/>
<path d="M0 25.7724H2.8069V30.0465H6.37931V25.7724H9.18621V36.8724H6.37931V32.4707H2.8069V36.8724H0V25.7724Z" fill="#333333"/>
<path d="M17.6707 25.7724H20.669L24.5603 36.8724H21.6897L21.0517 34.831H17.0966L16.3948 36.8724H13.7793L17.6707 25.7724ZM20.2862 32.5983L19.0103 28.5793H18.9466L17.6707 32.5983H20.2862Z" fill="#333333"/>
<path d="M29.0259 25.7724H37.0638V28.0052H31.769V30.2379H36.1069V32.5345H31.769V36.8724H28.9621V25.7724H29.0259Z" fill="#333333"/>
<path d="M41.9121 25.7724H44.6552V36.8724H41.8483V25.7724H41.9121Z" fill="#333333"/>
<path d="M49.5672 35.0224L54.7345 28.0052H49.8224V25.7724H58.1793V27.6862L53.2034 34.5758H58.2431V36.8724H49.5672V35.0224Z" fill="#333333"/>
<path d="M66.3448 25.7724H69.3431L73.2345 36.8724H70.3638L69.7259 34.831H65.7069L65.0052 36.8724H62.3897L66.3448 25.7724ZM68.9603 32.5983L67.6845 28.5793H67.6207L66.3448 32.5983H68.9603Z" fill="#333333"/>
<path d="M149.276 25.7086H152.721L154.953 31.45L157.186 25.7086H160.567V36.8087H158.016V29.7276L155.91 35.2776H153.997L151.891 29.7276H151.828V36.8087H149.276V25.7086Z" fill="#333333"/>
<path d="M163.502 25.7086H171.667V27.9414H166.309V30.0466H170.838V32.2793H166.309V34.5121H171.731V36.8087H163.502V25.7086Z" fill="#333333"/>
<path d="M174.347 25.7086H179.195C181.747 25.7086 183.15 27.1759 183.15 29.2173C183.15 30.5569 182.512 31.8966 181.045 32.4707L183.597 36.8087H180.534L178.366 32.9173H177.09V36.8087H174.283V25.7086H174.347ZM178.876 30.8121C179.897 30.8121 180.471 30.238 180.471 29.3449C180.471 28.388 179.833 27.8776 178.876 27.8776H177.153V30.8121H178.876Z" fill="#333333"/>
<path d="M185.829 25.7086H188.636V30.7483L192.464 25.7086H195.398L191.89 30.1742L195.59 36.8087H192.464L189.848 32.088L188.509 33.5552V36.8087H185.702V25.7086H185.829Z" fill="#333333"/>
<path d="M197.631 25.7086H205.797V27.9414H200.438V30.0466H204.967V32.2793H200.438V34.5121H205.86V36.8087H197.631V25.7086Z" fill="#333333"/>
<path d="M208.093 34.9586L213.26 27.9414H208.348V25.7086H216.705V27.6862L211.729 34.5759H216.769V36.8724H208.157V34.9586H208.093Z" fill="#333333"/>
<path d="M219.193 25.7086H222V36.8086H219.193V25.7086ZM219.448 22.3914H221.745V24.7517H219.448V22.3914Z" fill="#333333"/>
</svg>
