<svg width="52" height="50" viewBox="0 0 52 50" fill="none" xmlns="http://www.w3.org/2000/svg">
<path d="M50 21.2301V42.8466C50 44.2596 49.2414 45.6147 47.8912 46.6139C46.5409 47.6131 44.7096 48.1744 42.8 48.1744H9.2C7.29044 48.1744 5.45909 47.6131 4.10883 46.6139C2.75857 45.6147 2 44.2596 2 42.8466V7.32781C2 5.91479 2.75857 4.55964 4.10883 3.56048C5.45909 2.56132 7.29044 2 9.2 2H24.0125C25.2851 2.00014 26.5055 2.37423 27.4055 3.04003L48.5945 18.7193C49.4943 19.3853 49.9998 20.2884 50 21.2301Z" stroke="#F26857" stroke-width="3" stroke-linejoin="round"/>
<path d="M26 2.88794V16.2075C26 17.1495 26.5057 18.0529 27.4059 18.719C28.3061 19.3851 29.527 19.7594 30.8 19.7594H48.8M14 28.639H38M14 37.5187H38" stroke="#F26857" stroke-width="3" stroke-linecap="round" stroke-linejoin="round"/>
</svg>
